<mxfile host="app.diagrams.net" agent="Mozilla/5.0 (Macintosh; Intel Mac OS X 10_15_7) AppleWebKit/537.36 (KHTML, like Gecko) Chrome/131.0.0.0 Safari/537.36" version="25.0.3">
  <diagram name="第 1 页" id="9rRDiI2A8pGVekSGpyRT">
    <mxGraphModel dx="1242" dy="785" grid="0" gridSize="10" guides="0" tooltips="1" connect="1" arrows="1" fold="1" page="1" pageScale="1" pageWidth="827" pageHeight="1169" math="0" shadow="0">
      <root>
        <mxCell id="0" />
        <mxCell id="1" parent="0" />
        <mxCell id="TYszPtwWjWxVEj9GVor7-1" value="" style="whiteSpace=wrap;html=1;aspect=fixed;" vertex="1" parent="1">
          <mxGeometry x="70" y="142" width="521" height="521" as="geometry" />
        </mxCell>
        <mxCell id="TYszPtwWjWxVEj9GVor7-2" value="&lt;font style=&quot;font-size: 25px;&quot;&gt;&lt;b&gt;平台管理员&lt;/b&gt;&lt;/font&gt;" style="text;html=1;align=center;verticalAlign=middle;whiteSpace=wrap;rounded=0;" vertex="1" parent="1">
          <mxGeometry x="90" y="163" width="168" height="47" as="geometry" />
        </mxCell>
        <mxCell id="TYszPtwWjWxVEj9GVor7-4" value="" style="whiteSpace=wrap;html=1;aspect=fixed;" vertex="1" parent="1">
          <mxGeometry x="129" y="280" width="289" height="289" as="geometry" />
        </mxCell>
        <mxCell id="TYszPtwWjWxVEj9GVor7-5" value="&lt;span style=&quot;font-size: 25px;&quot;&gt;&lt;b&gt;租户系统管理员&lt;/b&gt;&lt;/span&gt;" style="text;html=1;align=center;verticalAlign=middle;whiteSpace=wrap;rounded=0;" vertex="1" parent="1">
          <mxGeometry x="139" y="303" width="212" height="46" as="geometry" />
        </mxCell>
        <mxCell id="TYszPtwWjWxVEj9GVor7-6" value="" style="whiteSpace=wrap;html=1;aspect=fixed;" vertex="1" parent="1">
          <mxGeometry x="170" y="388" width="159" height="159" as="geometry" />
        </mxCell>
        <mxCell id="TYszPtwWjWxVEj9GVor7-7" value="&lt;span style=&quot;font-size: 25px;&quot;&gt;&lt;b&gt;用户&lt;/b&gt;&lt;/span&gt;" style="text;html=1;align=center;verticalAlign=middle;whiteSpace=wrap;rounded=0;" vertex="1" parent="1">
          <mxGeometry x="183" y="402" width="114" height="39" as="geometry" />
        </mxCell>
      </root>
    </mxGraphModel>
  </diagram>
</mxfile>
